<svg xmlns="http://www.w3.org/2000/svg" version="1.1" xmlns:xlink="http://www.w3.org/1999/xlink" xmlns:svgjs="http://svgjs.com/svgjs" width="670.47" height="360.01"><svg id="SvgjsSvg1001" data-name="Layer 2" xmlns="http://www.w3.org/2000/svg" viewBox="0 0 670.47 360.01">
  <defs>
    <style>
      .cls-1 {
        fill: #fff;
      }
    </style>
  </defs>
  <g id="SvgjsG1000" data-name="Layer 1">
    <path class="cls-1" d="m481.56,64.13c-9.62,4.39-18.76,8.57-28.08,12.83-.98-1.06-1.97-2.07-2.9-3.15-10.12-11.82-21.12-22.72-33.38-32.34-7.36-5.77-15.17-10.47-24.18-13.39-13.24-4.3-25.58-2.08-37.51,4.07-7.72,3.98-13.55,10.09-17.97,17.55-4.47,7.54-7.04,15.72-8.42,24.33-.69,4.28-.87,8.58-.84,12.91.12,21.76.17,43.52.27,65.27.07,15.84.32,31.68.25,47.51-.05,12.96-.55,25.91-2.56,38.75-1.14,7.28-2.78,14.44-5.24,21.4-4.98,14.1-13.45,25.7-25.02,35.09-12.03,9.76-25.77,15.94-40.73,19.59-11.24,2.75-22.66,3.98-34.22,4.18-17.18.29-34.21-.85-50.92-5.11-8.87-2.26-17.41-5.37-25.5-9.66-8.11-4.3-15.43-9.68-21.88-16.24-3.25-3.31-6.67-6.45-9.35-10.28-3.69-5.27-6.59-10.95-8.93-16.93-4.34-11.08-6.86-22.62-8.59-34.36-2.95-20.02-3.61-40.17-2.68-60.32.96-20.79.61-41.59,1.01-62.38.15-7.68.27-15.36.35-23.03.06-5.77-.3-11.51-1.6-17.16-1.05-4.58-2.89-8.8-5.84-12.49-2.76-3.44-6.09-6.09-10.61-7.61-3.34,1.31-6.1,3.66-8.5,6.48-3.69,4.34-6.04,9.38-7.73,14.78-2.46,7.85-3.36,15.94-3.64,24.12-.13,3.83-.01,7.68-.01,11.52-.01,38.4-.72,76.81.14,115.19.99,44.28,19.64,79.81,56.4,105.22,15.03,10.39,31.75,17.17,49.33,21.83,11.29,2.99,22.72,5.41,34.34,6.66,12.77,1.37,25.54,1.15,38.29-.58,13.73-1.86,26.94-5.46,39.51-11.26,22.4-10.34,39.97-26.23,53.47-46.76,6.62-10.06,11.94-20.79,16.3-32,.75-1.93,1.31-3.94,1.93-5.92,10.35-33.08,23.74-64.84,41.29-94.78,5.34-9.12,11.23-17.87,17.48-26.39,18.35-25.05,41.73-43.96,69.61-57.44,20.96-10.13,42.86-17.62,65.43-23.2,18.02-4.46,36.26-7.78,54.72-9.83,4.13-.46,8.25-.99,12.38-1.41,1.41-.14,2.84-.02,4.28.1-20.55,3.08-40.98,6.72-61.07,12.07-24.48,6.52-48.21,15.01-70.77,26.66-21.36,11.03-40.52,25.01-57.28,42.27-7.16,7.37-13.4,15.48-19.1,24-12.88,19.24-22.88,39.94-30.87,61.62-3.37,9.14-6.23,18.48-9.27,27.74-.6,1.82-.97,3.71-1.41,5.57-6.62,27.89-18.77,52.98-37.89,74.47-15.76,17.72-34.96,30.27-57.51,37.7-6.37,2.1-12.66,4.47-19.29,5.71-6.45,1.2-12.93,2.12-19.5,2.47-28.6,1.53-56.03-3.92-82.66-13.9-7.62-2.86-15.11-6.15-22.46-9.65-22.46-10.68-45.57-19.44-69.87-24.92-14.89-3.36-29.93-5.17-45.22-4.37-1.1.06-2.21,0-3.31,0-.19-1.25.81-1.37,1.4-1.71,9.91-5.73,14.38-14.6,14.86-25.76.04-.96,0-1.92,0-2.88,0-65.92,0-131.84,0-197.75,0-4.16-.04-8.3-.97-12.41-2.39-10.59-7.84-18.79-17.85-23.58-.51-.25-.94-.67-1.47-1.07.45-.32.68-.62.9-.62,49.91.12,99.83.26,149.74.43.26,0,.51.29.78.45.14.91-.66.97-1.17,1.19-5.72,2.56-9.59,6.95-11.89,12.61-1.61,3.98-3.02,8.13-3.78,12.34-1.34,7.38-2.37,14.85-3.09,22.32-1.49,15.46-1.79,30.98-1.71,46.5.11,21.92.37,43.83.69,65.75.17,11.54,1.43,22.98,3.79,34.29,2.4,11.48,5.99,22.55,11.61,32.9,5.34,9.83,12.21,18.36,21.25,25.05,7.03,5.2,14.87,8.75,23.16,11.33,25.84,8.05,51.48,7.26,76.61-2.65,26.49-10.44,43.56-29.53,50.72-57.27,2.6-10.1,4.12-20.37,4.8-30.76,1.79-27.16,2.04-54.35,1.79-81.55-.18-19.84-.64-39.67-.78-59.51-.09-12.5,2.75-24.43,8.24-35.68,5.31-10.9,13.03-19.66,23.33-26.15C367.59,4.77,381.32.44,396.2.02c10.27-.29,19.97,2.15,29.09,6.9,6.85,3.57,13.04,8.09,18.8,13.21,6.71,5.97,12.86,12.49,18.5,19.46,6.04,7.46,11.9,15.07,17.82,22.62.38.48.64,1.05,1.15,1.91Z"></path>
    <path class="cls-1" d="m492.29,78.07c2.63,3.64,5.26,7.04,7.63,10.61,19.04,28.62,38.05,57.27,57.04,85.92,5.48,8.26,10.86,16.58,16.29,24.88.52.79,1.01,1.6,1.63,2.59-.74,1.04-1.4,2.12-2.2,3.07-15.31,18.27-29.47,37.44-43.9,56.41-3.49,4.59-6.71,9.36-9.18,14.59-1.71,3.62-3.08,7.36-3.47,11.41-.4,4.17.58,7.88,3.09,11.26,3.37,4.56,7.52,8.28,12.13,11.5,2.09,1.46,4.31,2.75,6.46,4.14.47.3.84.74,1.46,1.28-4.05.63-73.86.76-80.12.17.84-.49,1.3-.92,1.84-1.06,11.38-2.91,21.2-8.79,30.33-15.97,7.7-6.06,14.6-12.95,20.83-20.48,3.97-4.8,7.74-9.78,11.48-14.77,8.83-11.77,17.59-23.59,26.37-35.39,1.04-1.4,2.06-2.82,2.99-4.1-.32-2.12-1.6-3.41-2.56-4.84-20.47-30.55-40.97-61.09-61.46-91.63-7.22-10.76-14.43-21.51-21.63-32.28-.69-1.03-1.31-2.12-1.94-3.14,3.95-3.54,18.29-11.12,26.88-14.18Z"></path>
    <path class="cls-1" d="m670.47,27.58c-2.51,2.57-4.37,4.48-6.42,6.58.45,2.68.91,5.44,1.43,8.52-2.63-.34-4.55-1.49-6.54-2.32-1.59-.67-3-.72-4.55.16-1.92,1.1-3.93,2.02-6.09,3.12-1.06-3.2.95-5.93.2-8.91-1.76-2-4.44-3.28-6.39-5.74,2.35-1.11,4.53-1.34,6.69-1.58,1.74-.19,2.9-1.01,3.69-2.61.9-1.83,1.59-3.8,3.05-5.51,1.51.67,1.88,2.13,2.64,3.22.82,1.17,1.54,2.41,2.39,3.77,2.94.39,5.91.78,9.89,1.31Z"></path>
  </g>
</svg><style>@media (prefers-color-scheme: light) { :root { filter: contrast(1) brightness(0.7); } }
</style></svg>