<?xml version="1.0" encoding="utf-8"?>
<!-- Generator: Adobe Illustrator 27.5.0, SVG Export Plug-In . SVG Version: 6.00 Build 0)  -->
<svg version="1.1" id="Layer_1" xmlns="http://www.w3.org/2000/svg" xmlns:xlink="http://www.w3.org/1999/xlink" x="0px" y="0px"
	 viewBox="0 0 149 37" style="enable-background:new 0 0 149 37;" xml:space="preserve">
<style type="text/css">
	.st0{font-family:'Times-Roman';}
	.st1{font-size:23.0298px;}
	.st2{font-family:'Times-Bold';}
</style>
<text transform="matrix(1 0 0 1 46.7434 26.741)"><tspan x="0" y="0" class="st0 st1">Luy</tspan><tspan x="37.1" y="0" class="st2 st1">Brand </tspan></text>
<path d="M3.9,26.8c0,0,0.1,0,0.1-0.1c0.5-0.3,0.8-0.8,0.8-1.3c0-0.1,0-0.2,0-0.2c0-3.7,0-7.4,0-11c0-0.2,0-0.5-0.1-0.7
	c-0.1-0.6-0.4-1-1-1.3c0,0,0,0-0.1-0.1c0.1-0.1,0.1,0,0.2,0c1,0,2,0,3,0c1.7,0,3.3,0,5,0c0.1,0,0.2,0,0.3,0c0,0.1-0.1,0.1-0.1,0.1
	c-0.3,0.1-0.5,0.4-0.7,0.6c-0.1,0.2-0.2,0.5-0.2,0.8c-0.1,0.4-0.1,0.9-0.2,1.3c-0.1,1.3-0.1,2.7-0.1,4c0,0.8,0,1.5,0,2.3
	c0,0.7,0.1,1.4,0.3,2c0.1,0.5,0.3,1,0.5,1.5c0.5,1,1.3,1.7,2.4,2.1c1.5,0.5,3,0.4,4.5-0.2c1.4-0.6,2.3-1.6,2.7-3.1
	c0.1-0.6,0.2-1.1,0.3-1.7c0.1-1.5,0.1-3,0.1-4.5c0-1.1,0-2.2,0-3.3c0-0.7,0.2-1.4,0.5-2c0.3-0.6,0.7-1,1.2-1.3
	c0.7-0.5,1.5-0.7,2.4-0.8c0.5,0,1.1,0.1,1.5,0.3c0.4,0.2,0.7,0.4,1,0.7c0.4,0.3,0.7,0.7,1,1.1c0.4,0.4,0.7,0.9,1.1,1.4
	c0,0,0,0.1,0.1,0.1c-0.5,0.2-1,0.5-1.6,0.7c-0.1,0-0.1-0.1-0.2-0.2c-0.5-0.5-0.9-1-1.5-1.5c-0.2-0.2-0.5-0.4-0.7-0.6
	c-0.4-0.3-0.9-0.5-1.4-0.6c-0.1,0-0.3,0-0.4,0c-1.1,0.1-1.9,0.6-2.4,1.6c-0.2,0.5-0.4,1.1-0.4,1.7c0,2.1,0,4.2,0,6.3
	c0,0.6,0,1.3-0.1,1.9c0,0.4-0.1,0.8-0.2,1.2c-0.3,1.1-0.9,2-1.9,2.6c-0.7,0.5-1.4,0.7-2.2,0.9c-1,0.2-1.9,0.2-2.9,0.1
	c-0.7-0.1-1.4-0.2-2-0.4c-0.8-0.3-1.6-0.7-2.2-1.3c-0.5-0.5-0.8-1-1-1.6c-0.2-0.6-0.3-1.2-0.4-1.8c-0.2-1.1-0.2-2.2-0.1-3.3
	c0.1-1.2,0-2.3,0.1-3.5c0-0.4,0-0.8,0-1.3c0-0.3,0-0.6-0.1-1c-0.1-0.3-0.2-0.5-0.3-0.7c-0.2-0.2-0.3-0.3-0.6-0.4
	c-0.3,0.1-0.5,0.4-0.7,0.6C7.1,13,7,13.4,7,13.7c-0.1,0.4-0.1,0.8-0.1,1.2c0,2.2,0,4.4,0,6.5c0,0.6,0.1,1.2,0.2,1.7
	c0.5,2.2,1.8,3.8,3.8,4.8c0.9,0.4,1.8,0.7,2.7,0.9c0.3,0.1,0.6,0.1,1,0.2c0.7,0.1,1.4,0.1,2.2,0c0.6-0.1,1.3-0.2,1.9-0.5
	c1.3-0.5,2.4-1.4,3.2-2.5c0.5-0.6,0.8-1.3,1.1-2.1c0-0.1,0.1-0.2,0.1-0.3c0.6-1.9,1.4-3.7,2.4-5.4c0.4-0.7,0.9-1.4,1.5-2.1
	c0.9-1,2-1.8,3.2-2.4c1.2-0.6,2.4-1,3.7-1.3c1-0.2,2-0.4,3-0.5c0.2,0,0.5-0.1,0.7-0.1c0.1,0,0.2,0,0.3,0c-0.3,0-0.5,0.1-0.8,0.1
	c-2,0.3-4,0.9-5.8,1.7c-1,0.5-1.9,1-2.8,1.7c-0.9,0.7-1.6,1.6-2.2,2.5c-0.7,1.1-1.3,2.3-1.7,3.6c-0.2,0.5-0.3,1.1-0.5,1.6
	c-0.4,1.4-1,2.6-1.9,3.7c-0.9,1.1-2,1.9-3.4,2.3c-0.4,0.1-0.7,0.3-1.1,0.3c-0.7,0.1-1.5,0.2-2.3,0.1c-1.5-0.1-2.9-0.5-4.2-1.1
	c-0.4-0.2-0.8-0.4-1.2-0.5c-1-0.4-2-0.8-3-1c-0.7-0.2-1.3-0.3-2-0.3C4.4,26.8,4.1,26.8,3.9,26.8C3.9,26.8,3.9,26.8,3.9,26.8z"/>
<path d="M31.1,14.1c0.1,0.2,0.3,0.4,0.4,0.5c1.3,1.9,2.6,3.9,3.9,5.8c0.1,0.2,0.2,0.4,0.4,0.6c0,0.1-0.1,0.1-0.1,0.2
	c-0.9,1-1.7,2.1-2.5,3.2c-0.2,0.3-0.4,0.6-0.5,0.9c-0.1,0.2-0.1,0.4-0.2,0.6c0,0.2,0,0.4,0.1,0.5c0.1,0.1,0.2,0.3,0.3,0.4
	c0.2,0.2,0.4,0.3,0.6,0.5c0.1,0,0.1,0.1,0.2,0.1c0,0-0.1,0-0.1,0c-0.4,0-4.1,0-4.3,0c0,0,0,0,0,0c0.7-0.2,1.3-0.5,1.8-1
	c0.5-0.4,1-1,1.4-1.5c0.6-0.8,1.2-1.6,1.8-2.5c0,0,0.1-0.1,0.1-0.1c-0.1-0.1-0.1-0.2-0.2-0.2c-1.4-2-2.7-4.1-4.1-6.1
	c-0.2-0.3-0.3-0.5-0.5-0.8c0-0.1-0.1-0.1-0.1-0.2C29.8,14.6,30.6,14.3,31.1,14.1z"/>
<path d="M40.2,10.8c0.1,0.1,0.2,0.3,0.3,0.4c0.2,0.1,0.3,0,0.5,0.1c-0.1,0.2-0.2,0.2-0.3,0.4c0,0.1,0.1,0.3,0.1,0.5
	c-0.1,0-0.2,0-0.2-0.1c-0.1,0-0.1-0.1-0.2-0.1c-0.1,0.1-0.3,0.1-0.5,0.2c-0.1-0.2,0-0.3,0-0.5c-0.1-0.1-0.2-0.2-0.4-0.3
	c0.1,0,0.1-0.1,0.2-0.1c0.1,0,0.2,0,0.4-0.1C40.1,11.1,40.1,10.9,40.2,10.8z"/>
<path d="M38.1,11.9c0,0-0.1,0-0.1,0c0,0,0,0,0,0C38,11.9,38,11.9,38.1,11.9C38.1,11.9,38.1,11.9,38.1,11.9z"/>
</svg>
