<?xml version="1.0" standalone="no"?>
<!DOCTYPE svg PUBLIC "-//W3C//DTD SVG 20010904//EN"
 "http://www.w3.org/TR/2001/REC-SVG-20010904/DTD/svg10.dtd">
<svg version="1.0" xmlns="http://www.w3.org/2000/svg"
 width="1340.000000pt" height="1340.000000pt" viewBox="0 0 1340.000000 1340.000000"
 preserveAspectRatio="xMidYMid meet">
<metadata>
Created by potrace 1.14, written by Peter Selinger 2001-2017
</metadata>
<g transform="translate(0.000000,1340.000000) scale(0.100000,-0.100000)"
fill="#000000" stroke="none">
<path d="M7798 10295 c-2 -2 -24 -6 -48 -9 -25 -3 -56 -8 -70 -11 -14 -3 -41
-8 -60 -11 -19 -3 -78 -20 -130 -37 -52 -17 -97 -31 -100 -32 -25 -7 -213 -96
-220 -104 -3 -3 -22 -15 -42 -26 -146 -78 -357 -285 -434 -425 -10 -19 -21
-37 -24 -40 -10 -9 -82 -162 -105 -224 -25 -68 -61 -193 -70 -245 -3 -19 -8
-37 -10 -41 -19 -31 -22 -337 -10 -1145 4 -247 6 -466 5 -485 -1 -19 -2 -42
-1 -50 0 -8 0 -44 0 -80 -1 -36 -1 -72 0 -80 2 -44 0 -185 -4 -440 -7 -399
-10 -464 -31 -800 -8 -140 -18 -230 -40 -360 -4 -25 -8 -52 -10 -60 -6 -45
-22 -124 -24 -127 -3 -3 -4 -6 -14 -53 -54 -248 -184 -517 -337 -700 -32 -39
-159 -170 -163 -170 -3 0 -20 -14 -38 -30 -18 -17 -51 -43 -73 -58 -22 -15
-49 -35 -59 -44 -11 -10 -24 -18 -30 -18 -5 0 -17 -6 -25 -14 -24 -21 -191
-107 -191 -98 0 4 -4 2 -8 -4 -15 -22 -262 -110 -408 -145 -98 -23 -99 -23
-164 -34 -25 -4 -54 -9 -65 -11 -116 -22 -459 -22 -585 0 -14 3 -43 7 -65 10
-22 2 -47 7 -55 10 -8 3 -31 7 -50 10 -19 3 -62 13 -95 21 -33 9 -64 17 -70
18 -5 1 -16 6 -22 10 -7 5 -13 6 -13 3 0 -10 -205 67 -285 106 -194 97 -405
272 -505 421 -14 20 -28 37 -32 37 -5 0 -8 4 -8 9 0 6 -14 31 -32 57 -43 65
-138 251 -131 258 4 3 2 6 -4 6 -6 0 -14 12 -19 28 -9 33 -9 33 -17 52 -59
137 -138 449 -163 640 -3 30 -8 66 -10 80 -4 32 -12 116 -19 203 -8 100 -16
731 -18 1372 -1 482 4 707 18 890 5 65 16 197 20 240 5 54 21 167 30 215 4 24
13 79 20 130 14 97 71 265 116 343 40 68 115 139 180 172 29 15 48 30 43 35
-5 5 -681 11 -1511 13 -1559 4 -1560 4 -1473 -35 17 -7 30 -16 30 -20 0 -5 3
-7 8 -6 4 2 27 -11 52 -28 135 -94 239 -277 266 -470 9 -59 11 -4222 2 -4279
-27 -184 -112 -321 -260 -420 -32 -21 -58 -41 -58 -45 0 -4 80 -7 178 -7 161
0 292 -6 382 -18 19 -2 58 -7 85 -10 28 -3 57 -8 66 -11 10 -2 32 -7 50 -10
19 -2 43 -6 54 -8 39 -7 174 -36 236 -52 35 -8 71 -17 79 -18 8 -2 22 -6 30
-9 8 -3 33 -10 55 -15 42 -10 209 -59 235 -68 8 -3 15 -5 15 -4 0 3 151 -52
167 -60 10 -6 23 -10 28 -10 6 0 82 -28 168 -61 157 -61 193 -76 310 -130 35
-16 65 -29 67 -29 3 0 53 -23 112 -51 250 -119 577 -254 688 -283 6 -2 17 -5
25 -8 56 -19 124 -40 175 -54 33 -8 76 -20 95 -25 19 -5 46 -12 59 -15 12 -2
53 -12 90 -20 36 -9 76 -18 89 -20 12 -2 34 -6 50 -9 15 -3 43 -8 62 -10 19
-3 46 -8 60 -11 14 -3 44 -8 66 -10 23 -2 53 -5 67 -8 152 -27 694 -29 832 -2
11 2 56 9 100 16 88 14 85 13 135 24 58 13 380 116 425 136 11 5 61 25 110 45
50 20 96 41 103 47 6 6 12 8 12 4 0 -3 19 5 43 18 180 99 211 117 228 132 8 8
19 14 23 14 4 0 18 8 31 17 12 10 33 25 45 33 176 120 373 302 510 469 25 30
52 62 60 71 8 9 24 29 35 44 11 16 30 40 41 55 35 43 164 240 164 250 0 5 4
11 9 13 4 2 29 43 55 92 26 49 50 94 54 100 8 10 33 67 92 201 12 28 28 63 36
79 8 16 14 37 14 47 0 10 5 21 10 24 6 4 8 11 5 16 -4 5 -1 9 6 9 7 0 10 3 6
6 -3 3 3 26 13 50 11 24 19 47 19 50 -1 2 3 17 9 32 11 30 40 126 47 157 2 11
13 54 24 95 11 41 22 87 25 101 5 29 190 591 205 624 5 11 23 56 40 100 83
222 250 578 371 790 65 113 189 316 200 325 3 3 30 41 60 85 29 44 56 82 59
85 3 3 19 23 36 45 16 22 34 45 40 51 5 7 26 31 45 55 48 61 138 156 249 263
128 124 130 126 135 126 3 0 17 12 33 28 31 30 44 40 148 123 148 118 459 329
486 329 5 0 9 5 9 10 0 6 4 10 10 10 5 0 33 14 61 31 73 43 287 151 295 149 4
-1 10 2 13 7 6 8 63 35 206 98 33 14 69 30 80 35 51 24 277 110 288 110 7 0
17 4 23 9 5 5 54 23 109 41 55 18 123 40 150 50 107 38 628 179 725 197 14 2
63 13 110 23 47 10 99 21 115 24 29 6 52 10 105 21 26 5 81 15 115 21 11 1 35
5 53 9 17 3 44 7 60 9 15 3 65 11 112 20 47 8 105 17 130 21 25 4 50 11 55 16
7 7 0 8 -20 5 -16 -2 -55 -7 -85 -11 -30 -3 -71 -8 -90 -10 -19 -3 -57 -7 -85
-10 -92 -11 -174 -21 -240 -30 -16 -3 -46 -7 -65 -9 -19 -3 -46 -7 -60 -10
-14 -3 -54 -10 -90 -16 -36 -5 -75 -12 -86 -14 -12 -2 -37 -7 -55 -10 -19 -3
-45 -8 -59 -11 -14 -3 -36 -8 -50 -11 -41 -7 -95 -17 -100 -19 -3 -1 -23 -5
-45 -10 -22 -4 -49 -10 -60 -12 -11 -2 -31 -6 -44 -9 -14 -3 -28 -7 -31 -9 -4
-2 -21 -7 -39 -10 -18 -3 -124 -30 -235 -61 -110 -30 -208 -56 -216 -58 -50
-13 -377 -126 -490 -171 -258 -100 -669 -295 -721 -341 -8 -8 -19 -14 -22 -14
-7 0 -217 -133 -242 -152 -5 -5 -41 -32 -80 -60 -218 -161 -450 -379 -606
-568 -11 -14 -30 -36 -42 -50 -12 -14 -35 -43 -51 -65 -16 -22 -32 -42 -35
-45 -24 -19 -300 -426 -323 -475 -6 -14 -15 -25 -20 -25 -4 0 -8 -4 -8 -10 0
-5 -18 -39 -40 -75 -22 -36 -40 -70 -40 -75 0 -6 -3 -10 -8 -10 -4 0 -18 -24
-31 -52 -13 -29 -27 -55 -30 -58 -19 -14 -282 -548 -312 -632 -7 -21 -17 -38
-21 -38 -4 0 -8 -8 -8 -18 0 -10 -7 -28 -16 -40 -8 -12 -13 -22 -10 -22 3 0
-15 -46 -40 -101 -24 -56 -44 -108 -44 -115 0 -8 -4 -14 -8 -14 -5 0 -9 -6 -9
-12 0 -7 -16 -53 -36 -103 -19 -49 -43 -115 -53 -145 -11 -30 -23 -58 -29 -62
-5 -4 -7 -8 -3 -8 5 0 -1 -22 -11 -49 -10 -28 -16 -52 -13 -55 3 -4 0 -6 -6
-6 -7 0 -12 -7 -12 -15 0 -21 -95 -313 -137 -420 -32 -81 -165 -360 -195 -410
-7 -11 -26 -42 -42 -70 -202 -342 -474 -635 -783 -846 -56 -38 -106 -69 -112
-69 -6 0 -11 -5 -11 -11 0 -5 -4 -8 -9 -5 -5 4 -11 2 -13 -3 -5 -13 -229 -124
-343 -169 -148 -58 -355 -119 -465 -137 -19 -3 -42 -8 -50 -10 -8 -2 -31 -6
-50 -9 -80 -10 -136 -18 -160 -22 -172 -28 -597 -23 -810 12 -19 3 -53 7 -75
10 -22 3 -47 7 -55 9 -8 3 -33 7 -55 10 -22 4 -58 11 -80 17 -22 6 -49 12 -60
13 -11 2 -31 6 -45 9 -14 3 -34 8 -45 10 -103 24 -349 92 -380 106 -11 5 -41
16 -66 24 -73 24 -236 90 -324 132 -130 61 -345 187 -353 207 -2 4 -9 7 -16 7
-7 0 -21 8 -32 17 -10 10 -37 31 -59 47 -22 17 -43 35 -47 40 -4 6 -8 7 -8 2
0 -6 -8 -1 -18 10 -11 10 -41 37 -68 58 -73 59 -291 281 -355 361 -58 73 -169
230 -169 239 0 3 -12 22 -26 43 -35 51 -174 336 -174 357 0 3 -5 17 -12 33 -6
15 -12 30 -13 33 -1 3 -11 37 -24 75 -13 39 -25 84 -28 100 -3 17 -10 36 -15
43 -6 6 -8 12 -5 12 3 0 1 17 -4 38 -14 56 -37 173 -44 217 -3 22 -13 114 -21
184 -13 121 -16 495 -16 1541 1 1012 4 1259 17 1375 10 94 21 160 28 173 3 4
8 23 11 44 10 61 45 159 89 243 53 104 138 200 215 243 l39 22 59 -30 c97 -49
172 -129 222 -238 14 -31 27 -60 27 -64 0 -3 3 -10 8 -14 4 -4 7 -17 7 -29 0
-12 3 -25 7 -29 4 -4 8 -21 10 -39 1 -18 6 -50 10 -72 8 -49 10 -825 2 -825
-3 0 -3 -20 1 -45 4 -25 5 -47 3 -49 -3 -2 -6 -183 -8 -403 -2 -219 -7 -472
-11 -563 -15 -329 -6 -787 20 -1000 3 -25 8 -71 11 -104 4 -32 8 -68 10 -80 2
-11 7 -43 11 -71 8 -63 11 -83 18 -120 4 -16 9 -46 11 -65 3 -19 8 -46 12 -60
3 -14 7 -29 8 -35 2 -5 8 -37 16 -70 14 -66 14 -64 21 -85 3 -8 13 -42 23 -75
54 -189 148 -391 243 -525 60 -84 246 -270 364 -363 46 -37 167 -117 177 -117
5 0 11 -4 13 -8 5 -14 245 -127 338 -160 140 -50 326 -100 435 -116 22 -4 47
-8 55 -11 19 -5 117 -18 225 -30 213 -23 664 -24 855 0 19 2 55 6 80 9 25 3
55 7 66 10 12 2 37 7 55 10 29 4 160 32 194 40 83 21 226 68 290 95 22 10 60
26 85 37 58 24 267 140 280 154 3 3 21 17 40 30 19 13 70 52 113 88 228 186
393 425 488 704 52 155 83 285 104 443 4 28 9 64 10 80 2 17 6 50 9 75 20 147
24 304 24 840 1 1232 -4 1950 -11 1950 -5 0 -6 4 -2 10 3 5 8 68 10 140 2 72
6 134 8 138 3 4 8 29 11 56 4 27 9 53 11 56 2 4 7 20 9 37 23 126 117 333 205
450 54 72 161 183 176 183 3 0 16 9 27 20 18 17 161 93 178 96 3 0 23 8 44 17
33 15 122 41 176 52 8 2 15 4 15 5 0 4 78 9 155 10 114 2 243 -25 365 -75 81
-33 252 -126 290 -158 6 -4 44 -34 86 -65 143 -109 236 -191 408 -363 114
-113 141 -143 269 -286 l63 -71 36 14 c19 9 81 37 137 63 55 26 165 76 244
111 78 36 142 68 142 73 0 10 -100 141 -111 145 -5 2 -9 8 -9 13 0 8 -43 64
-100 132 -6 7 -40 50 -76 96 -175 225 -351 411 -529 557 -147 121 -361 241
-500 281 -142 40 -177 45 -332 48 -89 2 -163 1 -165 0z"/>
<path d="M13059 9844 c-38 -76 -55 -90 -124 -97 -28 -3 -63 -11 -77 -18 -30
-13 -33 -8 54 -82 45 -37 56 -52 52 -70 -8 -35 -13 -147 -8 -147 3 0 37 16 75
35 83 42 101 43 179 10 75 -32 92 -32 85 -2 -2 12 -7 40 -10 62 -3 22 -8 48
-11 57 -5 16 60 99 106 135 8 6 13 14 10 16 -8 8 -132 28 -172 28 -10 0 -23
10 -29 22 -28 54 -73 117 -84 117 -7 0 -27 -30 -46 -66z"/>
<path d="M9816 8732 c-3 -5 -24 -15 -48 -23 -50 -16 -282 -132 -348 -173 -118
-74 -122 -77 -107 -100 8 -12 20 -32 28 -46 8 -14 17 -27 20 -30 13 -12 149
-221 149 -229 0 -5 4 -11 8 -13 5 -1 132 -187 282 -413 151 -225 277 -412 281
-415 3 -3 8 -10 10 -15 2 -6 49 -77 104 -159 55 -81 107 -158 115 -172 8 -13
111 -166 228 -339 116 -173 212 -317 212 -320 0 -3 8 -15 18 -26 11 -10 25
-32 33 -47 8 -15 22 -34 31 -43 10 -9 18 -20 18 -24 0 -4 44 -73 98 -154 53
-80 98 -152 100 -159 1 -7 -7 -28 -20 -45 -27 -39 -128 -178 -143 -194 -29
-35 -35 -43 -35 -47 0 -3 -105 -146 -207 -281 -5 -6 -21 -28 -38 -50 -16 -22
-35 -47 -42 -55 -6 -8 -47 -62 -89 -120 -43 -58 -82 -109 -86 -115 -206 -261
-326 -394 -475 -524 -84 -74 -255 -201 -270 -201 -7 0 -13 -4 -13 -8 0 -5 -20
-19 -45 -31 -24 -12 -47 -26 -50 -32 -4 -5 -15 -9 -26 -9 -10 0 -19 -3 -19 -8
0 -13 -199 -91 -274 -107 -23 -5 -31 -13 -22 -22 3 -4 305 -7 669 -6 726 0
896 3 902 13 2 4 -45 40 -106 80 -111 73 -271 219 -284 260 -3 11 -10 20 -15
20 -5 0 -18 28 -29 63 -31 101 -14 217 51 357 33 70 95 177 115 198 7 7 13 17
13 21 0 4 8 16 18 27 9 11 33 42 52 69 19 27 41 57 50 66 8 9 24 28 34 43 11
15 28 37 38 48 10 12 18 24 18 27 0 3 14 21 30 40 17 18 30 37 30 40 0 4 8 16
18 27 9 10 33 39 52 64 19 25 38 47 42 48 5 2 8 8 8 14 0 6 10 22 23 37 12 16
34 43 48 62 168 216 292 375 298 379 3 3 22 25 41 50 19 25 48 61 65 81 122
143 122 142 70 219 -164 245 -535 813 -535 820 0 5 -4 10 -8 12 -11 4 -212
308 -212 320 0 4 -4 8 -10 8 -5 0 -10 7 -10 15 0 8 -4 15 -10 15 -5 0 -10 6
-10 14 0 8 -4 16 -8 18 -4 2 -41 55 -82 118 -41 63 -78 120 -83 125 -5 6 -117
174 -249 375 -250 378 -384 570 -398 570 -5 0 -11 -4 -14 -8z"/>
</g>
</svg>
